# xmcd CD database file
#
# Track frame offsets:
#	150
#	12405
#	26305
#	46136
#	53637
#	72641
#	86569
#	101847
#	130718
#	143688
#	155807
#	182076
#	198661
#	217461
#	228652
#
# Disc length: 3335 seconds
#
# Revision: 0
# Processed by: cddbd v1.5.2PL0 Copyright (c) Steve Scherf et al.
# Submitted via: CDex 1.81
#
DISCID=dd0d050f
DTITLE=Count Basie - Ultimate Count Basie Big Band Selection [Disc.2]
DYEAR=2014
DGENRE=Jazz
TTITLE0=The Heat's On
TTITLE1=Dinner With Friends
TTITLE2=Splanky
TTITLE3=One O'clock Jump
TTITLE4=The Queen Bee
TTITLE5=Wind Machine
TTITLE6=Mambo Inn
TTITLE7=Freckle Face
TTITLE8=Lonely Street
TTITLE9=Honeysuckle Rose
TTITLE10=Front Burner
TTITLE11=How High The Moon
TTITLE12=It's Oh, So Nice
TTITLE13=Blee Blop Blues
TTITLE14=Lil' Darlin
EXTD=YEAR: 2014
EXTT0=
EXTT1=
EXTT2=
EXTT3=
EXTT4=
EXTT5=
EXTT6=
EXTT7=
EXTT8=
EXTT9=
EXTT10=
EXTT11=
EXTT12=
EXTT13=
EXTT14=
PLAYORDER=
